<svg aria-hidden="true" style="position: absolute; width: 0; height: 0; overflow: hidden;" version="1.1" xmlns="http://www.w3.org/2000/svg" xmlns:xlink="http://www.w3.org/1999/xlink">
<defs>
<symbol id="icon-basket" viewBox="0 0 32 32">
<path d="M18.92 0.303c-1.081 0.624-1.451 2.006-0.827 3.086l2.39 4.14h-9.34l2.39-4.14c0.624-1.081 0.254-2.462-0.827-3.086s-2.462-0.254-3.086 0.827l-3.389 5.87c-0.098 0.17-0.172 0.348-0.222 0.53h-3.187c-1.56 0-2.824 1.264-2.824 2.824s1.264 2.824 2.824 2.824h25.98c1.56 0 2.824-1.265 2.824-2.824s-1.264-2.824-2.824-2.824h-3.187c-0.050-0.181-0.124-0.359-0.222-0.53l-3.389-5.87c-0.624-1.081-2.006-1.451-3.086-0.827zM3.302 31.25l-0.978-16.944h26.979l-0.978 16.944h-25.024zM16.944 19.954c0-0.624-0.506-1.129-1.13-1.129s-1.13 0.505-1.13 1.129v6.778c0 0.624 0.506 1.13 1.13 1.13s1.13-0.506 1.13-1.13v-6.778zM22.591 18.825c0.624 0 1.13 0.505 1.13 1.129v6.778c0 0.624-0.506 1.13-1.13 1.13s-1.13-0.506-1.13-1.13v-6.778c0-0.624 0.506-1.129 1.13-1.129zM10.166 19.954c0-0.624-0.506-1.129-1.13-1.129s-1.13 0.505-1.13 1.129v6.778c0 0.624 0.506 1.13 1.13 1.13s1.13-0.506 1.13-1.13v-6.778z"></path>
</symbol>
</defs>
</svg>
